<?xml version="1.0" standalone="no"?><!DOCTYPE svg PUBLIC "-//W3C//DTD SVG 1.1//EN" "http://www.w3.org/Graphics/SVG/1.1/DTD/svg11.dtd"><svg t="1536060232446" class="icon" style="" viewBox="0 0 1024 1024" version="1.1" xmlns="http://www.w3.org/2000/svg" p-id="23838" xmlns:xlink="http://www.w3.org/1999/xlink" width="128" height="128"><defs><style type="text/css"></style></defs><path d="M1000.160694 413.753624l-69.178319-24.570735a62.816254 62.816254 0 0 1-35.466686-85.924444l31.444691-66.253232 11.115332-23.4007-18.281797-18.208669-90.45833-90.458331-18.281797-18.281796-23.254445 11.115332-66.253232 31.44469a62.889381 62.889381 0 0 1-85.924445-35.539812L611.050932 24.570735 602.421923 0.219382H422.309662L413.900035 25.155752l-24.570735 73.346569c-11.407841 39.269299-48.995215 49.360851-87.752624 33.931015l-63.255017-32.175963-23.473827-11.919731-18.72056 18.501178-90.604584 89.507677-18.501179 18.281797 11.261587 23.546954 31.44469 65.741341c18.281797 35.978576 8.190245 73.127187-32.980361 84.535029l-71.664643 25.302006L0.731429 422.382632V601.909876l24.278226 8.702136 69.178319 24.643862a62.596872 62.596872 0 0 1 35.539812 85.851317l-31.44469 66.253232-11.115332 23.4007 18.281796 18.208669L195.981018 919.428123l19.23245 19.23245 23.91259-12.870385 66.253232-35.61294c34.954795-13.821038 72.54217-3.656359 83.511247 34.223523l25.009498 74.809113 8.3365 24.863243H602.421923l8.629009-24.278226 24.42448-68.739556a63.840034 63.840034 0 0 1 35.539813-37.367992 61.426837 61.426837 0 0 1 49.945869 1.243162l66.765121 31.737199 23.327573 11.115332 18.281797-18.281796 90.45833-90.531458 18.281797-18.281797-11.115332-23.254445-31.517818-66.253231a62.596872 62.596872 0 0 1 35.61294-85.851318l69.251446-24.790116 24.205099-8.629009V422.382632l-24.351353-8.629008z m-73.127187 72.030279l-21.791902-30.859672v114.517174l21.645647-30.859673-61.8656 22.230665a121.537385 121.537385 0 0 0-68.958937 166.437478l28.227094 59.306149 6.362065-37.148611-80.951796 80.951796 37.148611-6.362066-59.671784-28.373348c-30.713419-14.698565-66.399486-15.576091-97.990431-2.486324-31.883454 13.236021-56.67357 39.415554-68.227666 71.957152l-21.938156 61.499964 30.859673-21.791902H455.290023l31.005927 22.376919-21.938156-65.668214c-22.011283-76.344783-98.502321-96.96665-164.828679-70.275226l-62.596872 33.419124 38.611154 5.703921-81.024923-81.024923 6.435193 37.148611 28.153967-59.233022a121.683639 121.683639 0 0 0-68.958938-166.583732l-61.8656-22.084411 21.718775 30.859673V454.924231l-21.791902 30.859672 61.938727-21.938156c79.708634-21.938156 101.354281-102.012426 68.593302-166.949368l-27.861459-58.209241-6.508319 37.44112 81.024923-80.07427-37.733628 5.850175 59.233021 30.055274c69.105192 27.715204 145.449975 7.093337 167.826894-70.494608l21.57252-64.278797-31.005927 22.303792h114.590302l-30.859673-21.718775 22.011284 61.8656a121.610512 121.610512 0 0 0 166.583732 69.032065l59.306148-28.227094-37.148611-6.435193 80.951796 81.024923-6.435192-37.221738-28.153967 59.306149a121.683639 121.683639 0 0 0 68.88581 166.656859l61.938728 21.938156zM512.621738 621.800471a109.690781 109.690781 0 1 1-0.073127-219.308434A109.690781 109.690781 0 0 1 512.621738 621.800471zM512.621738 731.491252a219.381561 219.381561 0 1 0 0-438.763122 219.381561 219.381561 0 0 0 0 438.763122z" fill="#ffffff" p-id="23839"></path></svg>