<?xml version="1.0" standalone="no"?><!DOCTYPE svg PUBLIC "-//W3C//DTD SVG 1.1//EN" "http://www.w3.org/Graphics/SVG/1.1/DTD/svg11.dtd"><svg t="1536059541110" class="icon" style="" viewBox="0 0 1024 1024" version="1.1" xmlns="http://www.w3.org/2000/svg" p-id="21982" xmlns:xlink="http://www.w3.org/1999/xlink" width="128" height="128"><defs><style type="text/css"></style></defs><path d="M403.968 406.528c0-51.2-41.984-92.16-93.696-92.16-51.712 0-93.696 41.472-93.696 92.16 0 51.2 41.984 92.16 93.696 92.16 51.712 0 93.696-41.472 93.696-92.16z m26.624 303.616l-107.008-132.096-160.256 210.944h641.536l-160.256-448.512-186.88 369.664h-27.136z m400.896-292.864v371.712c0 29.184-24.064 52.736-53.248 52.736h-587.776c-29.696 0-53.248-23.552-53.248-52.736v-475.136c0-29.184 24.064-52.736 53.248-52.736H542.72v-79.36h-432.64c-29.696 0-53.248 23.552-53.248 52.736v633.344c0 29.184 24.064 52.736 53.248 52.736h748.032c29.696 0 53.248-23.552 53.248-52.736v-451.072h-79.872z" fill="#ffffff" p-id="21983"></path><path d="M794.112 95.744c-108.544 0-196.096 121.344-196.096 125.952 0 4.096 88.064 125.44 196.096 125.44 108.544 0 195.072-126.464 196.608-125.44 1.536 0.512-88.064-125.952-196.608-125.952z m0 204.288c-85.504 0-133.12-78.336-133.12-78.336s58.88-78.848 133.12-78.848c74.752 0 150.016 79.36 148.48 78.848-1.024-1.536-73.728 78.336-148.48 78.336z m-0.512-128c-26.112 0-47.104 20.992-47.104 47.104s20.992 47.104 47.104 47.104 47.104-20.992 47.104-47.104c-0.512-26.112-20.992-47.104-47.104-47.104z" fill="#ffffff" p-id="21984"></path></svg>