<?xml version="1.0" standalone="no"?><!DOCTYPE svg PUBLIC "-//W3C//DTD SVG 1.1//EN" "http://www.w3.org/Graphics/SVG/1.1/DTD/svg11.dtd"><svg t="1536054225000" class="icon" style="" viewBox="0 0 1024 1024" version="1.1" xmlns="http://www.w3.org/2000/svg" p-id="20448" xmlns:xlink="http://www.w3.org/1999/xlink" width="128" height="128"><defs><style type="text/css"></style></defs><path d="M810.666667 213.333333v597.333334H213.333333V213.333333h597.333334m0-42.666666H213.333333c-25.6 0-42.666667 17.066667-42.666666 42.666666v597.333334c0 25.6 17.066667 42.666667 42.666666 42.666666h597.333334c25.6 0 42.666667-17.066667 42.666666-42.666666V213.333333c0-25.6-17.066667-42.666667-42.666666-42.666666z" p-id="20449" fill="#ffffff"></path><path d="M213.333333 298.666667h597.333334v42.666666H213.333333zM213.333333 426.666667h597.333334v42.666666H213.333333zM213.333333 554.666667h597.333334v42.666666H213.333333zM213.333333 682.666667h597.333334v42.666666H213.333333z" p-id="20450" fill="#ffffff"></path><path d="M298.666667 213.333333h42.666666v597.333334H298.666667zM426.666667 213.333333h42.666666v597.333334h-42.666666zM554.666667 213.333333h42.666666v597.333334h-42.666666zM682.666667 213.333333h42.666666v597.333334h-42.666666z" p-id="20451" fill="#ffffff"></path></svg>