<?xml version="1.0" standalone="no"?><!DOCTYPE svg PUBLIC "-//W3C//DTD SVG 1.1//EN" "http://www.w3.org/Graphics/SVG/1.1/DTD/svg11.dtd"><svg t="1536059686497" class="icon" style="" viewBox="0 0 1024 1024" version="1.1" xmlns="http://www.w3.org/2000/svg" p-id="22454" xmlns:xlink="http://www.w3.org/1999/xlink" width="128" height="128"><defs><style type="text/css"></style></defs><path d="M753.068939 374.245589c0-38.041408-30.839379-68.880787-68.88181-68.880787-38.035268 0-68.874647 30.839379-68.874647 68.880787 0 38.034245 30.839379 68.873624 68.874647 68.873624C722.22956 443.119213 753.068939 412.279834 753.068939 374.245589z" p-id="22455" fill="#ffffff"></path><path d="M167.617044 718.628034 445.275831 718.628034 445.275831 406.891104 408.685471 339.806219Z" p-id="22456" fill="#ffffff"></path><path d="M856.381933 718.628034 649.753899 512 578.723146 597.235266 578.723146 651.547243 578.723146 718.628034 615.312482 718.628034Z" p-id="22457" fill="#ffffff"></path><path d="M64.303027 821.943075 445.275831 821.943075 445.275831 753.061264 133.177674 753.061264 133.177674 270.932596 445.275831 270.932596 445.275831 202.050786 64.303027 202.050786Z" p-id="22458" fill="#ffffff"></path><path d="M578.723146 202.050786 578.723146 270.932596 890.815163 270.932596 890.815163 753.061264 578.723146 753.061264 578.723146 821.943075 959.69595 821.943075 959.69595 202.050786Z" p-id="22459" fill="#ffffff"></path><path d="M529.216615 305.364803 494.782362 305.364803 494.782362 374.245589 460.341968 374.245589 460.341968 408.68496 494.782362 408.68496 494.782362 477.17996 529.216615 477.17996 529.216615 408.68496 563.657009 408.68496 563.657009 374.245589 529.216615 374.245589Z" p-id="22460" fill="#ffffff"></path><path d="M529.216615 64.303538 494.782362 64.303538 494.782362 133.178185 460.341968 133.178185 460.341968 167.609369 494.782362 167.609369 494.782362 236.492202 529.216615 236.492202 529.216615 167.609369 563.657009 167.609369 563.657009 133.178185 529.216615 133.178185Z" p-id="22461" fill="#ffffff"></path><path d="M529.216615 546.06791 494.782362 546.06791 494.782362 615.305831 460.341968 615.305831 460.341968 649.746224 494.782362 649.746224 494.782362 718.628034 529.216615 718.628034 529.216615 649.746224 563.657009 649.746224 563.657009 615.305831 529.216615 615.305831Z" p-id="22462" fill="#ffffff"></path><path d="M529.216615 787.501658 494.782362 787.501658 494.782362 856.382445 460.341968 856.382445 460.341968 890.816698 494.782362 890.816698 494.782362 959.695438 529.216615 959.695438 529.216615 890.816698 563.657009 890.816698 563.657009 856.382445 529.216615 856.382445Z" p-id="22463" fill="#ffffff"></path></svg>