<?xml version="1.0" standalone="no"?><!DOCTYPE svg PUBLIC "-//W3C//DTD SVG 1.1//EN" "http://www.w3.org/Graphics/SVG/1.1/DTD/svg11.dtd"><svg t="1536060423167" class="icon" style="" viewBox="0 0 1024 1024" version="1.1" xmlns="http://www.w3.org/2000/svg" p-id="25140" xmlns:xlink="http://www.w3.org/1999/xlink" width="128" height="128"><defs><style type="text/css"></style></defs><path d="M663.68 906.688a685.312 685.312 0 0 0 111.104-225.28c55.68-4.928 99.84-10.688 131.008-15.424a425.088 425.088 0 0 1-242.112 240.704m-545.6-240.96c31.36 4.672 75.712 10.368 131.072 15.36a685.888 685.888 0 0 0 111.168 225.6 425.152 425.152 0 0 1-242.24-240.96M362.88 116.288a712.192 712.192 0 0 0-112.768 226.24c-56.192 4.992-100.544 10.752-131.904 15.488A425.088 425.088 0 0 1 362.88 116.288m543.04 241.984a2284.992 2284.992 0 0 0-131.904-15.424 712.448 712.448 0 0 0-112.896-226.56 425.088 425.088 0 0 1 244.8 241.984m-116.48 53.248c65.28 6.4 112.64 13.632 137.344 17.792a423.68 423.68 0 0 1 0 165.568c-24.32 4.224-71.168 11.52-137.024 17.92A634.24 634.24 0 0 0 797.824 512c0-35.072-3.072-68.544-8.32-100.48M545.344 625.6v-227.2c64.768 0.768 123.52 3.52 174.912 7.232a538.24 538.24 0 0 1 0.384 212.928c-51.072 3.648-109.824 6.4-175.36 7.04M478.656 90.496v241.152c-57.6 0.576-109.888 2.624-156.544 5.504C364.608 209.984 442.048 121.6 471.68 91.008l6.912-0.512m73.792 0.512c29.696 30.528 107.264 118.784 149.76 246.4a2995.584 2995.584 0 0 0-156.8-5.76V90.496l7.04 0.512M292.928 512c0-37.44 4.096-72.96 10.88-106.624a2934.016 2934.016 0 0 1 174.784-6.976v227.2a2892.416 2892.416 0 0 1-175.36-7.232A556.288 556.288 0 0 1 293.056 512M88.96 512c0-28.352 2.88-56.064 8.192-82.816 24.384-4.288 71.36-11.52 137.344-17.984A611.072 611.072 0 0 0 226.176 512c0 35.2 2.944 68.672 8 100.48a2041.792 2041.792 0 0 1-136.96-17.792A423.68 423.68 0 0 1 89.024 512m382.08 420.928a639.168 639.168 0 0 1-150.208-246.4c47.232 3.072 100.096 5.248 157.696 5.888v241.088l-7.488-0.576m81.792 0l-7.488 0.64v-241.152a3041.92 3041.92 0 0 0 157.632-5.632 639.168 639.168 0 0 1-150.144 246.144M512 0C229.696 0 0 229.696 0 512s229.696 512 512 512 512-229.696 512-512-229.696-512-512-512" p-id="25141" fill="#ffffff"></path></svg>