<?xml version="1.0" standalone="no"?><!DOCTYPE svg PUBLIC "-//W3C//DTD SVG 1.1//EN" "http://www.w3.org/Graphics/SVG/1.1/DTD/svg11.dtd"><svg t="1536060038054" class="icon" style="" viewBox="0 0 1024 1024" version="1.1" xmlns="http://www.w3.org/2000/svg" p-id="23357" xmlns:xlink="http://www.w3.org/1999/xlink" width="128" height="128"><defs><style type="text/css"></style></defs><path d="M1007.18 971.96c0 22.46-17.57 40.04-40.04 40.04L94.1 1012c-20.51 0-39.06-17.58-39.06-40.04L55.04 465.12C28.67 450.48 15 427.04 15 396.77c0-29.3 12.69-51.76 38.08-67.39l-13.67-46.87L952.5 12l44.92 152.34L212.26 396.77l794.92 0L1007.18 971.96 1007.18 971.96zM66.75 369.42c-15.62 14.65-15.62 40.04 0 55.67 15.63 15.62 40.04 15.62 55.67 0 15.62-15.63 15.62-41.02 0-55.67C106.79 353.8 82.38 353.8 66.75 369.42L66.75 369.42 66.75 369.42zM852.89 165.32l95.7-28.32-98.63-52.73-95.71 27.34L852.89 165.32 852.89 165.32zM625.35 233.68l94.721-28.32-98.631-53.71-94.72 28.32L625.35 233.68 625.35 233.68zM396.83 301.06l94.73-28.32-98.63-53.71-94.73 28.32L396.83 301.06 396.83 301.06zM263.04 340.12l-98.63-53.71-75.19 22.46 1.95 8.79c0 0 0.97 0 1.95 0l0.98 0c34.18 0 62.5 20.51 74.22 50.79L263.04 340.12 263.04 340.12zM174.18 436.8 94.1 515.91l99.61 0 79.1-79.11L174.18 436.8 174.18 436.8zM411.48 436.8l-79.1 79.11 99.61 0 79.1-79.11L411.48 436.8 411.48 436.8zM649.76 436.8l-79.1 79.11 99.609 0 79.101-79.11L649.76 436.8 649.76 436.8zM967.14 436.8l-79.1 0-79.101 79.11L928.08 515.91l39.06-40.04L967.14 436.8 967.14 436.8z" p-id="23358" fill="#ffffff"></path></svg>